# xmcd CD database file
# Copyright (C) 1997 Ti Kan
# 
# Track frame offsets:
#     150
#     10872
#     23552
#     37180
#     53860
#     62577
#     72675
#     85490
#     97010
#     107752
#     116250
# 
# Disc length: 1780 seconds
# 
# Revision: 1
# Processed by: cddbd v1.4b41PL1 Copyright (c) Steve Scherf et al.
# Submitted via: DiscPlay 4.0.4
# 
DISCID=9206f20b
DTITLE=Linjen Bluesband - To Mean To Cry
DYEAR=1900
DGENRE=
TTITLE0=Why Didn't You Tell Me You Were A Boy
TTITLE1=I Got To Go
TTITLE2=Right Here Right There
TTITLE3=To Mean To Cry
TTITLE4=Flowers And Bees
TTITLE5=Let My Leg Be
TTITLE6=Out Of Sight
TTITLE7=Dirty Work
TTITLE8=Bluesharp In Heaven
TTITLE9=B.B.Boogie
TTITLE10=Get On The Good Foot
EXTD=
EXTT0=
EXTT1=
EXTT2=
EXTT3=
EXTT4=
EXTT5=
EXTT6=
EXTT7=
EXTT8=
EXTT9=
EXTT10=
PLAYORDER=
